<svg xmlns="http://www.w3.org/2000/svg" viewBox="0 0 292.14 74.63"><defs><style>.a{fill:#fff;}</style></defs><path class="a" d="M29,25.84H17.9V54.72H11.18V25.84H0V19.91H29Z"/><path class="a" d="M33.34,54.72V19.91H48.78a9.87,9.87,0,0,1,4.39,1,11.23,11.23,0,0,1,3.53,2.65A12.21,12.21,0,0,1,59,27.26a11.46,11.46,0,0,1,.81,4.22,12,12,0,0,1-.76,4.22,10.9,10.9,0,0,1-2.19,3.55,9.74,9.74,0,0,1-3.33,2.38l7.94,13.09H54L46.87,43.05H40.11V54.72Zm6.77-17.6h8.48a3.6,3.6,0,0,0,2.25-.76,5.32,5.32,0,0,0,1.57-2A6.71,6.71,0,0,0,53,31.48a6,6,0,0,0-2.4-4.91,3.88,3.88,0,0,0-2.26-.73H40.11Z"/><path class="a" d="M68.1,19.91l8.58,16.37,8.73-16.37h7.3L80.06,42.56V54.72H73.35V42.46L60.8,19.91Z"/><path class="a" d="M159.76,30.31h21.9v2.06a11.88,11.88,0,0,0-5.79,2.18q-2.12,1.66-5.48,7.71a95.34,95.34,0,0,1-9.47,13.53,53.57,53.57,0,0,0,8.74,6.73,9.48,9.48,0,0,0,4.63,1.32q3.89,0,7.05-5.11l2.16,1.16q-4.32,8.48-9.21,12a14.26,14.26,0,0,1-8.53,2.69A17.92,17.92,0,0,1,158,72.86a39.61,39.61,0,0,1-9-6.6,53,53,0,0,1-12.37,6.39,37,37,0,0,1-12.05,2q-10,0-15.89-5.42a16.8,16.8,0,0,1-5.9-12.74,19.15,19.15,0,0,1,5.64-13.74q5.63-5.83,16.36-10.1a41,41,0,0,1-2-6.68,30.58,30.58,0,0,1-.68-6.32,18.52,18.52,0,0,1,5.92-14Q133.81,0,143,0q7.41,0,11.76,3.71a11.12,11.12,0,0,1,4.34,8.66,13.54,13.54,0,0,1-4.45,10.18q-4.44,4.24-14.07,7.76Q146.55,40.79,158,52.89q7.72-8.69,7.73-14.89a5.21,5.21,0,0,0-1.52-3.77,7.15,7.15,0,0,0-4.48-1.86ZM126.19,36a16.26,16.26,0,0,0-6,3.79,9.94,9.94,0,0,0-2.47,6.57,19.35,19.35,0,0,0,2.86,9.85,22.53,22.53,0,0,0,6.92,7.57,14.63,14.63,0,0,0,8.11,2.69,13.89,13.89,0,0,0,4.5-.87,31.49,31.49,0,0,0,5.45-2.6A102.7,102.7,0,0,1,126.19,36Zm12.63-8.84q5.52-2.06,7.42-4.4a8.73,8.73,0,0,0,1.89-5.66A15.84,15.84,0,0,0,145,7.16,6.18,6.18,0,0,0,140,4.47a5.51,5.51,0,0,0-4.23,2A7.52,7.52,0,0,0,134,11.68a20.26,20.26,0,0,0,.84,5.53A85.6,85.6,0,0,0,138.82,27.16Z"/><path class="a" d="M221.54,45.67A7.8,7.8,0,0,1,220,50.55a9.5,9.5,0,0,1-4.09,3,15.14,15.14,0,0,1-5.62,1H193.5V19.78h18.63a7.07,7.07,0,0,1,4.24,1.3,8.61,8.61,0,0,1,2.75,3.34,10,10,0,0,1,.95,4.24,9.38,9.38,0,0,1-1.27,4.73,8,8,0,0,1-3.73,3.36,8.9,8.9,0,0,1,4.73,3.19A9.23,9.23,0,0,1,221.54,45.67Zm-21.28-20.1v8.78h9a4,4,0,0,0,2.06-.54,4.13,4.13,0,0,0,1.5-1.52A4.65,4.65,0,0,0,213.4,30a4.92,4.92,0,0,0-.51-2.33,4.22,4.22,0,0,0-1.38-1.52,3.46,3.46,0,0,0-1.93-.56Zm14.47,18.78a5.15,5.15,0,0,0-.54-2.38,4.51,4.51,0,0,0-1.45-1.69,3.51,3.51,0,0,0-2.08-.64h-10.4v9.22h10.05a4.27,4.27,0,0,0,2.23-.61,4.52,4.52,0,0,0,1.6-1.65A4.45,4.45,0,0,0,214.73,44.35Z"/><path class="a" d="M241.55,54.84a16.18,16.18,0,0,1-7-1.4,12.3,12.3,0,0,1-4.71-3.85A16.67,16.67,0,0,1,227.18,44a24.8,24.8,0,0,1-.83-6.5V19.78h6.71V37.53a18.84,18.84,0,0,0,.47,4.2A12.68,12.68,0,0,0,235,45.38a7,7,0,0,0,2.58,2.55,7.92,7.92,0,0,0,4,.93,7.84,7.84,0,0,0,4.09-1,7.35,7.35,0,0,0,2.57-2.57,11.89,11.89,0,0,0,1.43-3.65,19.82,19.82,0,0,0,.44-4.15V19.78h6.72V37.53a24.76,24.76,0,0,1-.89,6.7,16.52,16.52,0,0,1-2.69,5.54,12.43,12.43,0,0,1-4.71,3.72A16.37,16.37,0,0,1,241.55,54.84Z"/><path class="a" d="M267.53,19.78l8.58,16.38,8.73-16.38h7.3L279.49,42.44V54.6h-6.71V42.34L260.23,19.78Z"/></svg>